<?xml version="1.0" encoding="UTF-8"?>
<svg version="1.1" xmlns="http://www.w3.org/2000/svg" width="241" height="80">
<path d="M0 0 C6.27 0.33 12.54 0.66 19 1 C19.33 10.24 19.66 19.48 20 29 C22.64 26.69 25.28 24.38 28 22 C31.53645936 21.20173618 33.87711771 20.87787701 37.375 20.9375 C38.16132812 20.88529297 38.94765625 20.83308594 39.7578125 20.77929688 C45.10234826 20.77493042 48.42154743 22.52580437 52.5234375 25.91015625 C58.58264696 32.56037824 58.52408939 39.43707142 58.30371094 48.01318359 C58.24998592 50.50065175 58.3032817 52.97011249 58.3671875 55.45703125 C58.40458966 63.27976955 58.0335996 69.04361713 52.55859375 75.08984375 C47.42935307 79.32258793 43.35573655 80.4698806 36.8125 80.0625 C35.96236328 80.07603516 35.11222656 80.08957031 34.23632812 80.10351562 C29.17360139 79.96668517 26.51339826 79.04204416 22.88671875 75.43359375 C21.9010196 74.30920326 20.92986263 73.17098774 20 72 C20 74.64 20 77.28 20 80 C16.85378318 79.86177801 13.70814434 79.71314916 10.5625 79.5625 C9.66466797 79.52318359 8.76683594 79.48386719 7.84179688 79.44335938 C6.98779297 79.40146484 6.13378906 79.35957031 5.25390625 79.31640625 C4.46314697 79.27974854 3.6723877 79.24309082 2.85766602 79.20532227 C1 79 1 79 0 78 C-0.09498646 75.56603981 -0.12558417 73.16057048 -0.11352539 70.72631836 C-0.11367142 69.96539383 -0.11381744 69.2044693 -0.1139679 68.42048645 C-0.11326862 65.89357702 -0.10547555 63.36674038 -0.09765625 60.83984375 C-0.09579212 59.0924941 -0.0943682 57.34514393 -0.09336853 55.59779358 C-0.08954293 50.98968066 -0.07971229 46.38159905 -0.06866455 41.77349854 C-0.05845134 37.07491479 -0.0538711 32.37632601 -0.04882812 27.67773438 C-0.03809005 18.45180692 -0.02049292 9.22591096 0 0 Z M19 41 C19 47.27 19 53.54 19 60 C25.27 60 31.54 60 38 60 C38 53.73 38 47.46 38 41 C31.73 41 25.46 41 19 41 Z " fill="#E8E8E8" transform="translate(1,0)"/>
<path d="M0 0 C1.28197266 -0.02707031 1.28197266 -0.02707031 2.58984375 -0.0546875 C7.67728004 0.05471973 10.34515161 0.93196654 13.9921875 4.5625 C14.97694033 5.68793181 15.94693406 6.8273839 16.875 8 C16.875 5.69 16.875 3.38 16.875 1 C20.02081423 0.97111486 23.16659469 0.95324077 26.3125 0.9375 C27.21033203 0.92912109 28.10816406 0.92074219 29.03320312 0.91210938 C29.88720703 0.90888672 30.74121094 0.90566406 31.62109375 0.90234375 C32.41185303 0.89710693 33.2026123 0.89187012 34.01733398 0.88647461 C35.875 1 35.875 1 36.875 2 C36.9981517 3.74838835 37.05287811 5.50164504 37.08032227 7.25415039 C37.1102401 8.93578026 37.1102401 8.93578026 37.14076233 10.65138245 C37.15747482 11.8711528 37.17418732 13.09092316 37.19140625 14.34765625 C37.21218735 15.58921982 37.23296844 16.83078339 37.25437927 18.10997009 C37.30883609 21.41599123 37.35904205 24.72202245 37.40722656 28.02813721 C37.45739856 31.39967491 37.51310701 34.77112053 37.56835938 38.14257812 C37.67570042 44.76164786 37.77693057 51.38078666 37.875 58 C30.945 58 24.015 58 16.875 58 C16.875 55.69 16.875 53.38 16.875 51 C16.48425293 51.49371094 16.09350586 51.98742187 15.69091797 52.49609375 C12.47651612 56.16969586 10.09484948 58.43472984 5.1328125 59 C3.4222705 59.03678585 1.71055618 59.03612034 0 59 C-0.84691406 59.04382813 -1.69382813 59.08765625 -2.56640625 59.1328125 C-7.70441694 59.11707587 -11.15053739 57.85894433 -15.1875 54.65625 C-20.99967072 48.16490139 -20.47772768 40.41847155 -20.29833984 32.15283203 C-20.25003881 29.50212997 -20.2979501 26.86512621 -20.35546875 24.21484375 C-20.41355357 10.18049108 -20.41355357 10.18049108 -15.1875 4.34375 C-10.30155759 0.46752384 -6.111155 -0.3162546 0 0 Z M-0.125 20 C-0.125 26.27 -0.125 32.54 -0.125 39 C5.815 39 11.755 39 17.875 39 C17.875 32.73 17.875 26.46 17.875 20 C11.935 20 5.995 20 -0.125 20 Z " fill="#EEEEEE" transform="translate(131.125,21)"/>
<path d="M0 0 C3.43734063 -0.08703823 6.87439837 -0.14040272 10.3125 -0.1875 C11.28896484 -0.21263672 12.26542969 -0.23777344 13.27148438 -0.26367188 C14.20927734 -0.27333984 15.14707031 -0.28300781 16.11328125 -0.29296875 C16.97735596 -0.3086792 17.84143066 -0.32438965 18.73168945 -0.34057617 C21.52131615 0.07827317 22.29205398 0.79815169 24 3 C25.29977823 5.34071411 26.51681179 7.66002294 27.6875 10.0625 C28.00783203 10.69994141 28.32816406 11.33738281 28.65820312 11.99414062 C31 16.73265925 31 16.73265925 31 19 C33.31 19 35.62 19 38 19 C38.268125 18.14019531 38.53625 17.28039062 38.8125 16.39453125 C39.99675605 13.00927301 41.40169021 9.8961069 43 6.6875 C43.515625 5.63949219 44.03125 4.59148438 44.5625 3.51171875 C46 1 46 1 48 0 C49.59447464 -0.08400529 51.19240545 -0.10727467 52.7890625 -0.09765625 C53.73007813 -0.09443359 54.67109375 -0.09121094 55.640625 -0.08789062 C56.62546875 -0.07951172 57.6103125 -0.07113281 58.625 -0.0625 C59.61757812 -0.05798828 60.61015625 -0.05347656 61.6328125 -0.04882812 C64.0886016 -0.03702145 66.54427104 -0.020554 69 0 C68.16966481 1.68897726 67.3354498 3.37604682 66.5 5.0625 C65.69369141 6.69058594 65.69369141 6.69058594 64.87109375 8.3515625 C63.57228735 10.92659963 62.20272215 13.44940051 60.78515625 15.9609375 C60.41648438 16.622146 60.0478125 17.28335449 59.66796875 17.96459961 C58.94147583 19.26115201 58.20347476 20.55133518 57.453125 21.83422852 C55.46144157 25.3914797 55.46144157 25.3914797 55.23974609 29.36865234 C56.08968742 32.31042102 57.27181409 34.75264945 58.72265625 37.44921875 C59.52993164 38.96805664 59.52993164 38.96805664 60.35351562 40.51757812 C60.91748047 41.56365234 61.48144531 42.60972656 62.0625 43.6875 C63.18202486 45.77278977 64.29809798 47.8599376 65.41015625 49.94921875 C65.90652588 50.87049561 66.40289551 51.79177246 66.91430664 52.7409668 C68 55 68 55 68 57 C61.07 57 54.14 57 47 57 C42.375 48.0625 42.375 48.0625 40.95849609 45.24243164 C38.451297 40.32358122 38.451297 40.32358122 33.6640625 37.93359375 C32.78492188 37.95550781 31.90578125 37.97742187 31 38 C30.74476563 38.84820312 30.48953125 39.69640625 30.2265625 40.5703125 C28.14549011 46.38936206 24.97860708 51.59437975 22 57 C14.74 57 7.48 57 0 57 C1.19625 54.586875 2.3925 52.17375 3.625 49.6875 C4.01631104 48.89649902 4.40762207 48.10549805 4.81079102 47.29052734 C7.35984291 42.17757111 10.10329015 37.21924871 13.06640625 32.33203125 C14.25922929 29.3524691 13.84335054 28.0801714 13 25 C12.08321605 23.06744067 11.09573462 21.16760138 10.05859375 19.296875 C9.47529297 18.2346875 8.89199219 17.1725 8.29101562 16.078125 C7.67935547 14.97984375 7.06769531 13.8815625 6.4375 12.75 C5.22618568 10.55821869 4.01645787 8.36555956 2.80859375 6.171875 C2.27032959 5.2034668 1.73206543 4.23505859 1.17749023 3.23730469 C0 1 0 1 0 0 Z " fill="#F0F0F0" transform="translate(172,22)"/>
<path d="M0 0 C6.93 0 13.86 0 21 0 C21 2.31 21 4.62 21 7 C21.37769531 6.4946875 21.75539063 5.989375 22.14453125 5.46875 C24.83108214 2.29773912 26.67613633 0.22992476 30.87890625 -0.5 C33.64115857 -0.5 36.26916432 -0.41576737 39 0 C40.5220959 1.5220959 40.12959521 2.88210082 40.1328125 5 C40.13474609 6.2065625 40.13474609 6.2065625 40.13671875 7.4375 C40.13285156 8.283125 40.12898438 9.12875 40.125 10 C40.13080078 11.2684375 40.13080078 11.2684375 40.13671875 12.5625 C40.13542969 13.366875 40.13414063 14.17125 40.1328125 15 C40.13168457 15.7425 40.13055664 16.485 40.12939453 17.25 C40 19 40 19 39 20 C33.06 20 27.12 20 21 20 C21 32.21 21 44.42 21 57 C14.07 57 7.14 57 0 57 C0 38.19 0 19.38 0 0 Z " fill="#E7E7E7" transform="translate(67,22)"/>
<path d="M0 0 C0.66 1.32 1.32 2.64 2 4 C-4.93 4 -11.86 4 -19 4 C-19.33 3.34 -19.66 2.68 -20 2 C-13.4 2 -6.8 2 0 2 C0 1.34 0 0.68 0 0 Z " fill="#7B7B7B" transform="translate(238,75)"/>
<path d="" fill="#000000" transform="translate(0,0)"/>
<path d="" fill="#000000" transform="translate(0,0)"/>
<path d="M0 0 C2 1 2 1 2 1 Z " fill="#000000" transform="translate(92,22)"/>
<path d="" fill="#000000" transform="translate(0,0)"/>
<path d="" fill="#000000" transform="translate(0,0)"/>
<path d="" fill="#000000" transform="translate(0,0)"/>
<path d="" fill="#000000" transform="translate(0,0)"/>
<path d="" fill="#000000" transform="translate(0,0)"/>
<path d="" fill="#000000" transform="translate(0,0)"/>
<path d="" fill="#000000" transform="translate(0,0)"/>
<path d="" fill="#000000" transform="translate(0,0)"/>
<path d="" fill="#000000" transform="translate(0,0)"/>
<path d="" fill="#000000" transform="translate(0,0)"/>
<path d="" fill="#000000" transform="translate(0,0)"/>
<path d="" fill="#000000" transform="translate(0,0)"/>
<path d="" fill="#000000" transform="translate(0,0)"/>
<path d="" fill="#000000" transform="translate(0,0)"/>
<path d="" fill="#000000" transform="translate(0,0)"/>
<path d="" fill="#000000" transform="translate(0,0)"/>
<path d="" fill="#000000" transform="translate(0,0)"/>
<path d="" fill="#000000" transform="translate(0,0)"/>
<path d="" fill="#000000" transform="translate(0,0)"/>
<path d="" fill="#000000" transform="translate(0,0)"/>
<path d="" fill="#000000" transform="translate(0,0)"/>
<path d="" fill="#000000" transform="translate(0,0)"/>
<path d="" fill="#000000" transform="translate(0,0)"/>
<path d="" fill="#000000" transform="translate(0,0)"/>
<path d="" fill="#000000" transform="translate(0,0)"/>
<path d="" fill="#000000" transform="translate(0,0)"/>
<path d="" fill="#000000" transform="translate(0,0)"/>
<path d="" fill="#000000" transform="translate(0,0)"/>
<path d="" fill="#000000" transform="translate(0,0)"/>
<path d="" fill="#000000" transform="translate(0,0)"/>
<path d="" fill="#000000" transform="translate(0,0)"/>
<path d="" fill="#000000" transform="translate(0,0)"/>
<path d="" fill="#000000" transform="translate(0,0)"/>
<path d="" fill="#000000" transform="translate(0,0)"/>
<path d="" fill="#000000" transform="translate(0,0)"/>
<path d="" fill="#000000" transform="translate(0,0)"/>
<path d="" fill="#000000" transform="translate(0,0)"/>
<path d="" fill="#000000" transform="translate(0,0)"/>
<path d="" fill="#000000" transform="translate(0,0)"/>
<path d="" fill="#000000" transform="translate(0,0)"/>
<path d="" fill="#000000" transform="translate(0,0)"/>
<path d="" fill="#000000" transform="translate(0,0)"/>
<path d="" fill="#000000" transform="translate(0,0)"/>
<path d="" fill="#000000" transform="translate(0,0)"/>
<path d="" fill="#000000" transform="translate(0,0)"/>
<path d="" fill="#000000" transform="translate(0,0)"/>
<path d="" fill="#000000" transform="translate(0,0)"/>
<path d="" fill="#000000" transform="translate(0,0)"/>
<path d="" fill="#000000" transform="translate(0,0)"/>
<path d="" fill="#000000" transform="translate(0,0)"/>
<path d="" fill="#000000" transform="translate(0,0)"/>
<path d="" fill="#000000" transform="translate(0,0)"/>
<path d="" fill="#000000" transform="translate(0,0)"/>
<path d="" fill="#000000" transform="translate(0,0)"/>
<path d="" fill="#000000" transform="translate(0,0)"/>
<path d="" fill="#000000" transform="translate(0,0)"/>
<path d="" fill="#000000" transform="translate(0,0)"/>
<path d="" fill="#000000" transform="translate(0,0)"/>
<path d="" fill="#000000" transform="translate(0,0)"/>
<path d="" fill="#000000" transform="translate(0,0)"/>
<path d="" fill="#000000" transform="translate(0,0)"/>
<path d="" fill="#000000" transform="translate(0,0)"/>
<path d="" fill="#000000" transform="translate(0,0)"/>
<path d="" fill="#000000" transform="translate(0,0)"/>
<path d="" fill="#000000" transform="translate(0,0)"/>
<path d="" fill="#000000" transform="translate(0,0)"/>
<path d="" fill="#000000" transform="translate(0,0)"/>
<path d="" fill="#000000" transform="translate(0,0)"/>
<path d="" fill="#000000" transform="translate(0,0)"/>
<path d="" fill="#000000" transform="translate(0,0)"/>
<path d="" fill="#000000" transform="translate(0,0)"/>
<path d="" fill="#000000" transform="translate(0,0)"/>
<path d="" fill="#000000" transform="translate(0,0)"/>
<path d="" fill="#000000" transform="translate(0,0)"/>
<path d="" fill="#000000" transform="translate(0,0)"/>
<path d="" fill="#000000" transform="translate(0,0)"/>
<path d="" fill="#000000" transform="translate(0,0)"/>
<path d="" fill="#000000" transform="translate(0,0)"/>
<path d="" fill="#000000" transform="translate(0,0)"/>
<path d="" fill="#000000" transform="translate(0,0)"/>
<path d="" fill="#000000" transform="translate(0,0)"/>
<path d="" fill="#000000" transform="translate(0,0)"/>
<path d="" fill="#000000" transform="translate(0,0)"/>
<path d="" fill="#000000" transform="translate(0,0)"/>
<path d="" fill="#000000" transform="translate(0,0)"/>
<path d="" fill="#000000" transform="translate(0,0)"/>
<path d="" fill="#000000" transform="translate(0,0)"/>
<path d="" fill="#000000" transform="translate(0,0)"/>
<path d="" fill="#000000" transform="translate(0,0)"/>
<path d="" fill="#000000" transform="translate(0,0)"/>
<path d="" fill="#000000" transform="translate(0,0)"/>
<path d="" fill="#000000" transform="translate(0,0)"/>
<path d="" fill="#000000" transform="translate(0,0)"/>
<path d="" fill="#000000" transform="translate(0,0)"/>
<path d="" fill="#000000" transform="translate(0,0)"/>
<path d="" fill="#000000" transform="translate(0,0)"/>
<path d="" fill="#000000" transform="translate(0,0)"/>
</svg>
